<svg width="45" height="45" viewBox="0 0 45 45" fill="none" xmlns="http://www.w3.org/2000/svg">
<g clip-path="url(#clip0_6_277)">
<path d="M37.9688 28.125H35.1562C34.7833 28.125 34.4256 28.2732 34.1619 28.5369C33.8982 28.8006 33.75 29.1583 33.75 29.5312V39.375H5.625V11.25H18.2812C18.6542 11.25 19.0119 11.1018 19.2756 10.8381C19.5393 10.5744 19.6875 10.2167 19.6875 9.84375V7.03125C19.6875 6.65829 19.5393 6.3006 19.2756 6.03688C19.0119 5.77316 18.6542 5.625 18.2812 5.625H4.21875C3.09987 5.625 2.02681 6.06947 1.23564 6.86064C0.444474 7.65181 0 8.72487 0 9.84375L0 40.7812C0 41.9001 0.444474 42.9732 1.23564 43.7644C2.02681 44.5555 3.09987 45 4.21875 45H35.1562C36.2751 45 37.3482 44.5555 38.1394 43.7644C38.9305 42.9732 39.375 41.9001 39.375 40.7812V29.5312C39.375 29.1583 39.2268 28.8006 38.9631 28.5369C38.6994 28.2732 38.3417 28.125 37.9688 28.125ZM42.8906 0H31.6406C29.7624 0 28.8237 2.27725 30.1465 3.60352L33.2868 6.74385L11.8652 28.1575C11.6686 28.3535 11.5126 28.5863 11.4061 28.8427C11.2996 29.0991 11.2448 29.374 11.2448 29.6517C11.2448 29.9293 11.2996 30.2042 11.4061 30.4606C11.5126 30.717 11.6686 30.9498 11.8652 31.1458L13.8577 33.1348C14.0537 33.3314 14.2865 33.4874 14.5429 33.5939C14.7993 33.7004 15.0742 33.7552 15.3519 33.7552C15.6295 33.7552 15.9044 33.7004 16.1608 33.5939C16.4172 33.4874 16.65 33.3314 16.846 33.1348L38.257 11.7176L41.3965 14.8535C42.7148 16.1719 45 15.249 45 13.3594V2.10938C45 1.54993 44.7778 1.01341 44.3822 0.617822C43.9866 0.222237 43.4501 0 42.8906 0V0Z" fill="white"/>
</g>
<defs>
<clipPath id="clip0_6_277">
<rect width="45" height="45" fill="white"/>
</clipPath>
</defs>
</svg>
