<svg width="1728" height="233" viewBox="0 0 1728 233" fill="none" xmlns="http://www.w3.org/2000/svg">
  <path fill-rule="evenodd" clip-rule="evenodd" d="M0 68.8751H36C72 68.8751 144 68.8751 216 46.696C288 25.1507 360 -18.5737 432 8.67482C504 35.9234 576 134.779 648 172.8C720 210.821 792 189.276 864 151.254C936 112.599 1008 58.1024 1080 63.1719C1152 68.8751 1224 134.779 1296 139.848C1368 145.551 1440 91.0541 1512 74.5783C1584 58.1024 1656 79.6478 1692 91.0541L1728 101.827V233H1692C1656 233 1584 233 1512 233C1440 233 1368 233 1296 233C1224 233 1152 233 1080 233C1008 233 936 233 864 233C792 233 720 233 648 233C576 233 504 233 432 233C360 233 288 233 216 233C144 233 72 233 36 233H0V68.8751Z" fill="url(#paint0_linear_5_2)" />
  <defs>
    <linearGradient id="paint0_linear_5_2" x1="864" y1="0" x2="864" y2="233" gradientUnits="userSpaceOnUse">
      <stop offset="0.28125" stop-color="#0099FF" />
      <stop offset="1" stop-color="#044977" stop-opacity="0.91" />
    </linearGradient>
  </defs>
</svg>
